<?xml version="1.0" encoding="UTF-8"?>
<svg width="1024" height="1024" viewBox="0 0 1024 1024" xmlns="http://www.w3.org/2000/svg" role="img" aria-labelledby="title desc">
  <title id="title">VibeDeck icon — final scaled interface cyan mark</title>
  <desc id="desc">An interface-cyan V, comet and star scaled together for stronger home-screen presence.</desc>
  <defs>
    <clipPath id="iconClip"><rect width="1024" height="1024" rx="205" ry="205"/></clipPath>
    <linearGradient id="bg" x1="180" y1="60" x2="880" y2="980" gradientUnits="userSpaceOnUse">
      <stop offset="0" stop-color="#1D2A34"/>
      <stop offset="0.52" stop-color="#111A22"/>
      <stop offset="1" stop-color="#081016"/>
    </linearGradient>
    <radialGradient id="bgGlow" cx="34%" cy="18%" r="72%">
      <stop offset="0" stop-color="#344454" stop-opacity="0.38"/>
      <stop offset="0.45" stop-color="#162430" stop-opacity="0.12"/>
      <stop offset="1" stop-color="#05090D" stop-opacity="0"/>
    </radialGradient>
    <linearGradient id="cometTrail" x1="190" y1="432" x2="790" y2="380" gradientUnits="userSpaceOnUse">
      <stop offset="0" stop-color="#77F4FF" stop-opacity="1"/>
      <stop offset="0.16" stop-color="#00D7F6" stop-opacity="1"/>
      <stop offset="0.62" stop-color="#009ECB" stop-opacity="0.94"/>
      <stop offset="1" stop-color="#006D96" stop-opacity="0.10"/>
    </linearGradient>
    <filter id="softShadow" x="-30%" y="-30%" width="160%" height="160%">
      <feDropShadow dx="0" dy="28" stdDeviation="28" flood-color="#000000" flood-opacity="0.52"/>
      <feDropShadow dx="0" dy="5" stdDeviation="8" flood-color="#04101A" flood-opacity="0.82"/>
    </filter>
    <filter id="cyanGlow" x="-35%" y="-35%" width="170%" height="170%">
      <feGaussianBlur stdDeviation="5" result="blur"/>
      <feMerge><feMergeNode in="blur"/><feMergeNode in="SourceGraphic"/></feMerge>
    </filter>
    <filter id="starGlow" x="-35%" y="-35%" width="170%" height="170%">
      <feGaussianBlur stdDeviation="3.2" result="blur"/>
      <feMerge><feMergeNode in="blur"/><feMergeNode in="SourceGraphic"/></feMerge>
    </filter>
  </defs>

  <g clip-path="url(#iconClip)">
    <rect width="1024" height="1024" fill="url(#bg)"/>
    <rect width="1024" height="1024" fill="url(#bgGlow)"/>
    <rect x="10" y="10" width="1004" height="1004" rx="196" ry="196" fill="none" stroke="#34424F" stroke-width="8" opacity="0.42"/>
    <rect x="23" y="23" width="978" height="978" rx="184" ry="184" fill="none" stroke="#050A0F" stroke-width="6" opacity="0.55"/>

    <!-- Eight-percent enlargement gives the mark the same visual mass as neighboring home-screen icons. -->
    <g transform="translate(512 520) scale(1.08) translate(-512 -520)">
      <path d="M 774 376 C 806 408 785 442 738 470 C 596 552 366 518 206 432" fill="none" stroke="#0087B5" stroke-width="36" stroke-linecap="round" opacity="0.17" filter="url(#cyanGlow)"/>

      <g filter="url(#softShadow)">
        <path d="M286 306 L512 780 L738 306" fill="none" stroke="#07546D" stroke-width="173" stroke-linecap="round" stroke-linejoin="round"/>
        <path d="M286 306 L512 780 L738 306" fill="none" stroke="#078FBD" stroke-width="163" stroke-linecap="round" stroke-linejoin="round"/>
      </g>

      <path d="M 774 376 C 806 408 785 442 738 470 C 596 552 366 518 206 432" fill="none" stroke="url(#cometTrail)" stroke-width="16" stroke-linecap="round" filter="url(#cyanGlow)"/>
      <path d="M 764 386 C 790 410 773 435 728 463 C 588 539 366 506 206 432" fill="none" stroke="#C2FAFF" stroke-width="2.7" stroke-linecap="round" opacity="0.86"/>

      <g transform="translate(206 432) scale(1.32)" filter="url(#starGlow)">
        <path d="M0 -34 C 5 -9, 9 -5, 34 0 C 9 5, 5 9, 0 34 C -5 9, -9 5, -34 0 C -9 -5, -5 -9, 0 -34Z" fill="#92F7FF"/>
        <path d="M0 -19 C 3 -5, 5 -3, 19 0 C 5 3, 3 5, 0 19 C -3 5, -5 3, -19 0 C -5 -3, -3 -5, 0 -19Z" fill="#FFFFFF" opacity="0.94"/>
      </g>
    </g>
  </g>
</svg>
